<svg version="1.1" id="wiidatabase" xmlns="http://www.w3.org/2000/svg" width="100%" viewBox="0 0 462 462">
    <title>WiiDatabase.de Logo</title>
    <rect width="100%" height="100%" fill="#FF7D01" />
    <path fill="#FFFFFF" d="
M140.227020,117.118423 
	C98.238167,135.206924 64.539680,163.182617 36.666359,199.233810 
	C29.778975,193.352615 22.998869,187.563019 15.548128,181.200760 
	C23.068361,172.353653 30.194672,163.412277 37.902710,155.004211 
	C63.268768,127.334450 92.306396,104.562462 127.087776,89.751030 
	C165.069336,73.576813 204.522964,68.820953 245.359726,74.673515 
	C276.481903,79.133820 305.824158,88.803162 333.359680,103.966553 
	C334.368530,104.522095 335.337891,105.149323 336.846924,106.056511 
	C333.239838,113.535576 329.677856,120.921097 325.901062,128.752014 
	C265.542908,99.102043 204.093475,90.968582 140.227020,117.118423 
z" />
    <path fill="#FFFFFF" d="
M64.426178,223.557098 
	C62.474655,221.987732 60.794720,220.649490 58.694427,218.976379 
	C88.696190,179.740814 125.189026,150.132263 173.513489,136.947220 
	C223.533569,123.299545 279.524994,133.936172 314.219788,152.337021 
	C311.448883,158.252914 308.666290,164.193741 305.659851,170.612457 
	C264.578003,153.625366 222.693253,146.688431 179.265152,158.631180 
	C135.984940,170.533218 102.523735,196.533356 75.811340,232.458557 
	C71.982285,229.471283 68.340027,226.629730 64.426178,223.557098 
z" />
    <path fill="#FFFFFF" opacity="1.000000" stroke="none" d="
M377.998901,264.000000 
	C377.998901,245.198242 377.998901,226.896469 377.998901,208.297607 
	C392.686707,208.297607 407.075348,208.297607 422.032257,208.297607 
	C422.032257,219.553131 422.022858,230.667648 422.034485,241.782150 
	C422.051361,257.946442 422.100861,274.110748 422.105408,290.275024 
	C422.115662,326.476959 398.894928,353.372162 363.038483,358.954926 
	C348.778534,361.175140 334.438995,362.824860 320.551270,358.001190 
	C313.636322,355.599365 306.745911,352.005249 301.043243,347.449768 
	C285.366425,334.926666 265.184204,334.725616 249.938934,347.857025 
	C240.465439,356.016937 229.071243,359.599030 216.945221,360.572723 
	C199.472687,361.975800 182.199448,360.326355 166.137817,352.843109 
	C140.770630,341.024231 127.688858,320.572296 127.149780,292.752625 
	C126.607613,264.773651 127.030502,236.775955 127.030502,208.392822 
	C141.568298,208.392822 155.945648,208.392822 170.934723,208.392822 
	C170.934723,210.121704 170.934708,211.892426 170.934723,213.663132 
	C170.934921,237.993210 170.920441,262.323303 170.940750,286.653381 
	C170.953171,301.541687 178.966919,312.600189 193.406723,316.453674 
	C207.980026,320.342804 222.536102,319.698700 236.274353,313.043762 
	C246.564117,308.059326 252.030167,299.595978 252.010651,287.876556 
	C251.970703,263.879852 251.998840,239.882980 251.998917,215.886185 
	C251.998917,213.423584 251.998901,210.960983 251.998901,208.257751 
	C267.724579,208.257751 282.988556,208.257751 298.969635,208.257751 
	C298.969635,209.974960 298.969635,211.729721 298.969635,213.484467 
	C298.969635,236.814682 298.969116,260.144897 298.969788,283.475128 
	C298.970398,303.258118 307.330963,313.717926 326.818909,317.415710 
	C337.725983,319.485321 348.716888,319.481018 359.303436,315.353485 
	C371.389465,310.641327 378.009979,300.877136 378.016510,287.994934 
	C378.020477,280.163300 378.005432,272.331635 377.998901,264.000000 
z" />
</svg>
